<svg xmlns="http://www.w3.org/2000/svg" data-name="Layer 1" viewBox="0 0 64 80" x="0px" y="0px"><title>archive file compressed</title><path d="M20.93,36.011h8.14a1,1,0,0,0,1-1v-3.3H19.93v3.3A1,1,0,0,0,20.93,36.011Z"/><polygon points="31.179 54.378 32.858 54.378 32.042 51.21 31.179 54.378"/><path d="M54,44.17V17.876l-.293-.293L39.417,3.293,39.124,3H14a4,4,0,0,0-4,4V40.741a1.994,1.994,0,0,0-1,1.723V57a5.006,5.006,0,0,0,5,5H50a5.006,5.006,0,0,0,5-5V45.893A1.991,1.991,0,0,0,54,44.17ZM25.884,57.882,24.26,54.354H23.042v3.528H21.135V48.954h3.574a3.775,3.775,0,0,1,1.2.18,2.5,2.5,0,0,1,.915.528,2.371,2.371,0,0,1,.586.87,3.215,3.215,0,0,1,.209,1.206,2.366,2.366,0,0,1-.4,1.374,2.261,2.261,0,0,1-1.141.846l1.937,3.924Zm7.874,0-.48-1.872H30.746l-.516,1.872H28.311l2.58-8.928h2.255l2.544,8.928Zm9.312,0H41.6V57.19a2.748,2.748,0,0,1-.961.633,3.335,3.335,0,0,1-1.14.179,3.483,3.483,0,0,1-1.656-.365,3.179,3.179,0,0,1-1.115-.979,4.174,4.174,0,0,1-.631-1.41,6.877,6.877,0,0,1-.2-1.662,8.076,8.076,0,0,1,.2-1.806,4.392,4.392,0,0,1,.644-1.511,3.234,3.234,0,0,1,1.183-1.044,3.817,3.817,0,0,1,1.8-.391,3.631,3.631,0,0,1,1.883.52,2.657,2.657,0,0,1,.768.722,4.384,4.384,0,0,1,.564,1.17l-1.776.468a2.738,2.738,0,0,0-.63-.93,1.526,1.526,0,0,0-1.05-.318,1.207,1.207,0,0,0-.881.321,2.154,2.154,0,0,0-.511.792,4.014,4.014,0,0,0-.234,1,9.186,9.186,0,0,0-.053.926,7.036,7.036,0,0,0,.065.913,3.6,3.6,0,0,0,.254.938,1.93,1.93,0,0,0,.532.726,1.335,1.335,0,0,0,.888.29,1.586,1.586,0,0,0,1.2-.475,1.613,1.613,0,0,0,.456-1H39.555V53.263H43.07ZM52,43.893H30.086l-2.4-2.747a2,2,0,0,0-1.505-.682H12V7a2,2,0,0,1,2-2h6.847a.991.991,0,0,0-.917.983V6.5a1,1,0,0,0,1,1h2.778v2.521H20.93a1,1,0,0,0-1,1v.521a1,1,0,0,0,1,1h2.778v2.521H20.93a1,1,0,0,0-1,1v.521a1,1,0,0,0,1,1h2.778v2.521H20.93a1,1,0,0,0-1,1v.521a1,1,0,0,0,1,1h2.778v2.521H20.93a1,1,0,0,0-1,1v.521a1,1,0,0,0,1,1h2.778v1.521a1,1,0,0,0,1,1H29.07a1,1,0,0,0,1-1v-.521a1,1,0,0,0-1-1H26.292V25.151H29.07a1,1,0,0,0,1-1V23.63a1,1,0,0,0-1-1H26.292V20.109H29.07a1,1,0,0,0,1-1v-.521a1,1,0,0,0-1-1H26.292V15.067H29.07a1,1,0,0,0,1-1v-.521a1,1,0,0,0-1-1H26.292V10.025H29.07a1,1,0,0,0,1-1V8.5a1,1,0,0,0-1-1H26.292V5H37.71V15.29a4,4,0,0,0,4,4H52Z"/><path d="M25.382,50.856a1.527,1.527,0,0,0-1.008-.27H23.042v2.137h1.141a5.1,5.1,0,0,0,.551-.03,1.45,1.45,0,0,0,.493-.135.874.874,0,0,0,.347-.3.97.97,0,0,0,.132-.54,1.41,1.41,0,0,0-.084-.517A.833.833,0,0,0,25.382,50.856Z"/><text x="0" y="79" fill="#000000" font-size="5px" font-weight="bold" font-family="'Helvetica Neue', Helvetica, Arial-Unicode, Arial, Sans-serif"></text><text x="0" y="84" fill="#000000" font-size="5px" font-weight="bold" font-family="'Helvetica Neue', Helvetica, Arial-Unicode, Arial, Sans-serif"></text></svg>